<?xml version="1.0" encoding="utf-8"?>
<svg width="800px" height="600px"
     xmlns="http://www.w3.org/2000/svg"
     xmlns:xhtml="http://www.w3.org/1999/xhtml"
     xmlns:xlink="http://www.w3.org/1999/xlink"
     xmlns:a="http://www.adobe.com/svg10-extensions" a:timeline="independent"
     onload="top.load(evt)">

  <style type ="text/css">
    .button {
      fill: white;
      fill-opacity: 0.5;
      stroke: grey;
      stroke-width: 5;
    }
    
    .button_text {
      fill: black;
      font-family: Arial;
      font-size: 20px;
      text-anchor: middle;
    }
    
    .side{
      fill: black;
      font-family: Arial;
      font-size:25px;
      text-anchor:middle;
    }
  </style>
  
  <defs>
    <clipPath id="gameareaclip">
      <rect x="20" y="20" width="600" height="560"/>
    </clipPath>

    <pattern id="background_pattern" x="0" y="0" width="30" height="30" patternUnits="userSpaceOnUse">
      <path fill="green" d="m4.86451,3.32705c1.26736,0.84585 2.52474,1.71263 3.75442,2.60547c-2.46762,-1.1444 -5.17622,-1.96719 -8.18085,-2.42331c2.55755,1.46343 5.01662,3.04406 7.43243,4.68407c-2.03757,-0.98765 -4.2435,-1.76466 -6.66002,-2.2658c3.18854,1.87978 5.98998,3.96884 8.47332,6.25495c-3.14046,2.58581 -5.86385,5.73448 -8.08227,9.5389c1.48479,-1.33034 3.00737,-2.60399 4.5386,-3.87107c-2.55859,3.0594 -4.57913,6.65499 -5.94014,10.87905c1.1151,-1.34841 2.24487,-2.64003 3.39048,-3.87858c2.44818,-3.69609 4.9055,-8.05707 8.1527,-9.33363c-1.62171,1.68185 -3.47017,4.11666 -5.38106,6.47069c2.24498,-2.21469 4.55076,-4.24241 6.92363,-6.1074c3.37366,3.86067 6.06605,8.1814 8.33283,12.91853c-0.36903,-2.45332 -0.9199,-4.78593 -1.64471,-6.99214l2.5437,3.58901s-1.42602,-3.98116 -2.39121,-5.58573c2.23239,3.06214 4.28337,6.26711 6.15209,9.59581c-1.02275,-4.89931 -2.76649,-9.29825 -5.41627,-13.0473c1.91177,1.89994 3.75918,3.89408 5.52784,5.97229c-1.82611,-4.18884 -4.09727,-7.85875 -6.91054,-10.86119c2.20303,-1.4178 4.46258,-2.72366 6.78386,-3.93148c-1.75398,0.30452 -3.42252,0.70761 -5.03908,1.2013c1.19593,-0.88578 2.43229,-1.7594 3.67084,-2.60279c-2.08051,0.6523 -4.08758,1.41167 -5.97349,2.26925c2.33689,-1.51562 4.72766,-2.93935 7.17496,-4.30495l-0.00017,0c-3.69526,0.98885 -7.16543,2.3107 -10.35124,4.02815c-3.08317,-2.2888 -6.68237,-3.9317 -10.88058,-4.80215l-0.00006,0.00005l0,0z"/>
    </pattern>

    <radialGradient id="player_color">
      <stop offset="0.0" style="stop-color:lawngreen;stop-opacity:1"/>
      <stop offset="0.8" style="stop-color:lawngreen;stop-opacity:1"/>
      <stop offset="1.0" style="stop-color:green;stop-opacity:1"/>
    </radialGradient>

    <g id="zombie">
      <path transform="scale(0.01, -0.01) translate(0,-7000)" d="M3183 5648 c-64 -61 -119 -151 -159 -259 l-29 -77 -71 -6 c-168 -15 -435 -62 -659 -115 -44 -11 -81 -19 -81 -18 -6 6 -13 93 -14 152 -1 56 -3 65 -11 46 -5 -14 -11 -57 -12 -97 -1 -40 -6 -76 -9 -80 -4 -3 -14 10 -22 30 -21 51 -38 46 -22 -6 8 -24 16 -50 20 -58 5 -12 -13 -22 -80 -44 -106 -36 -312 -140 -456 -229 l-107 -66 -19 27 c-60 84 -76 274 -35 407 23 73 76 165 96 165 8 0 7 4 -2 9 -10 7 -5 21 25 67 22 33 43 65 48 73 5 8 -5 5 -22 -7 -16 -12 -54 -58 -84 -102 -35 -53 -61 -82 -78 -86 -104 -27 -206 -126 -244 -236 -22 -66 -22 -164 -1 -229 21 -63 101 -149 158 -170 20 -7 37 -16 37 -19 0 -7 -183 -172 -216 -194 -19 -14 -22 -12 -48 44 -16 37 -41 70 -63 87 -34 26 -43 28 -127 28 -82 0 -99 -4 -171 -36 -44 -20 -136 -68 -204 -107 -123 -71 -124 -71 -155 -56 -17 9 -63 48 -103 87 -40 39 -75 68 -78 65 -8 -8 80 -124 114 -149 38 -28 25 -40 -33 -33 -77 9 -138 71 -163 167 -16 65 -16 99 1 165 14 57 5 71 -14 20 -6 -18 -18 -46 -26 -63 -14 -29 -14 -28 -10 30 6 89 38 163 106 244 33 39 56 71 52 71 -4 0 -29 -13 -54 -29 -79 -51 -120 -146 -120 -281 0 -175 64 -300 181 -354 38 -17 64 -21 156 -20 93 0 122 4 190 28 120 41 211 93 282 161 l64 61 36 -12 c104 -36 152 -139 107 -227 -30 -58 -114 -155 -161 -186 -50 -33 -85 -37 -193 -22 -110 16 -269 -21 -364 -84 -65 -43 -69 -54 -7 -24 85 41 189 61 321 63 69 0 137 -2 153 -7 27 -7 27 -8 11 -39 -9 -18 -55 -90 -101 -161 -150 -229 -200 -355 -181 -456 11 -59 50 -99 153 -158 80 -45 165 -117 165 -139 0 -6 -19 -19 -42 -30 -168 -76 -266 -349 -213 -597 32 -154 99 -253 224 -334 2 -1 -6 -22 -18 -46 -39 -80 -20 -174 62 -307 134 -219 159 -262 173 -304 l16 -46 166 0 c167 -1 281 -6 380 -16 51 -5 52 -6 53 -40 1 -19 2 -37 3 -41 1 -5 6 -31 10 -60 10 -66 21 -80 76 -90 40 -7 47 -13 68 -53 27 -55 28 -120 3 -177 -11 -23 -70 -95 -134 -161 -125 -130 -142 -162 -135 -244 9 -84 74 -130 234 -164 44 -10 82 -20 85 -23 4 -3 9 -56 12 -118 8 -167 38 -223 121 -223 19 0 106 -9 193 -21 459 -61 667 -72 843 -45 157 25 204 45 450 191 85 50 220 124 300 165 233 116 365 215 426 318 9 16 44 43 82 62 129 67 341 245 537 452 94 99 140 166 184 270 24 59 26 73 26 219 l0 157 138 133 c203 194 302 323 382 493 90 190 125 348 130 591 2 66 4 121 4 123 1 1 16 -5 33 -14 30 -16 29 -13 -19 39 -48 53 -67 94 -66 142 1 49 4 65 12 65 9 0 135 -82 236 -154 28 -19 54 -35 60 -36 25 -1 -80 87 -159 132 -159 91 -189 132 -226 308 -13 58 -31 127 -41 153 -13 35 -14 49 -6 52 7 2 29 9 50 15 81 25 298 28 472 6 l40 -5 -35 16 c-98 43 -319 56 -475 28 -99 -18 -95 -18 -95 -1 0 28 -162 336 -247 468 -48 76 -146 217 -218 315 -71 97 -131 181 -133 185 -2 4 36 9 85 9 48 1 102 5 118 9 l30 8 -30 2 c-16 1 -81 3 -143 5 -95 4 -120 8 -155 27 -26 15 -42 30 -42 42 0 23 108 107 192 151 99 50 218 117 228 126 21 21 -97 -29 -233 -98 -190 -96 -173 -60 45 95 131 93 160 126 70 81 -69 -36 -164 -107 -265 -201 -52 -49 -105 -91 -118 -94 -16 -4 -34 3 -61 25 -81 65 -263 117 -526 151 -162 21 -393 30 -779 33 -119 1 -219 5 -223 8 -9 10 15 96 45 164 15 33 52 93 83 133 31 39 54 72 51 72 -3 0 -30 -24 -61 -52z m-1793 -301 c0 -2 -9 -39 -20 -81 -42 -167 -35 -326 20 -431 l28 -52 -35 4 c-123 17 -192 104 -193 240 0 122 55 237 142 295 37 25 58 34 58 25z m2300 -143 c209 -13 431 -49 615 -101 114 -31 245 -82 245 -94 0 -5 -15 -26 -34 -46 -55 -62 -68 -96 -41 -107 25 -9 43 4 80 60 43 65 78 75 73 22 l-3 -33 51 3 50 3 81 -93 c140 -159 269 -340 380 -533 66 -114 173 -318 173 -330 0 -6 -19 -20 -42 -31 -64 -28 -57 -50 14 -46 l57 2 21 -57 c30 -79 80 -233 80 -245 0 -6 -16 -7 -42 -3 -65 11 -147 8 -164 -6 -13 -11 -13 -14 1 -28 12 -12 39 -16 111 -17 104 -1 106 -2 124 -64 9 -33 14 -100 7 -100 -2 0 -50 16 -107 36 -102 34 -169 41 -177 18 -7 -21 48 -46 161 -73 141 -35 156 -43 157 -84 6 -176 6 -244 -3 -312 -28 -237 -129 -462 -304 -681 -27 -33 -112 -133 -189 -223 -134 -156 -255 -313 -255 -332 0 -22 35 -6 69 31 20 22 41 40 48 40 27 0 33 -169 9 -238 -9 -23 -31 -66 -50 -95 -66 -99 -521 -515 -541 -495 -3 3 15 36 40 75 25 38 48 85 51 104 l5 34 -53 -56 c-56 -58 -61 -66 -180 -249 -133 -205 -187 -251 -422 -356 -78 -35 -249 -118 -381 -184 -303 -151 -304 -152 -655 -150 -140 0 -273 3 -295 5 -22 2 -83 6 -135 10 -52 3 -151 15 -220 26 -162 25 -165 28 -162 174 1 28 4 64 7 82 5 30 7 31 38 22 38 -11 187 -8 180 4 -14 23 -110 43 -243 52 -195 12 -254 27 -290 73 -26 32 -26 91 -1 141 19 37 143 161 161 161 15 0 23 -46 18 -94 l-5 -44 86 -6 c164 -11 430 -20 931 -31 246 -5 299 -7 571 -21 l125 -6 31 48 c108 169 103 417 -11 606 -94 156 -310 341 -459 392 -59 20 -81 21 -422 20 -227 0 -447 -7 -595 -17 -129 -9 -311 -19 -405 -22 -224 -7 -325 -14 -410 -26 -73 -11 -119 -28 -80 -29 174 -5 219 -15 213 -48 -4 -20 -60 -29 -163 -24 l-70 3 -80 106 c-138 182 -177 260 -199 395 -3 16 -2 28 0 28 3 0 42 -26 87 -58 110 -78 126 -84 242 -89 108 -5 192 10 269 49 299 150 418 589 256 937 -90 191 -255 338 -455 407 -70 24 -96 28 -206 28 l-126 1 -72 -37 -72 -37 -65 67 c-35 37 -67 78 -71 92 -9 35 56 224 126 363 137 274 344 520 664 791 l58 49 45 -21 c37 -18 46 -20 50 -8 3 8 1 23 -5 35 -20 36 -12 47 67 93 163 97 493 245 515 231 4 -3 12 -16 18 -30 15 -39 45 -26 42 19 l-2 37 72 16 c266 61 651 123 682 111 10 -3 15 -19 15 -46 0 -37 2 -41 23 -38 18 2 23 10 25 41 2 21 9 40 16 43 48 18 394 23 626 8z m-2328 -2013 c166 -58 290 -191 327 -351 15 -66 13 -197 -4 -265 -73 -278 -387 -422 -695 -319 -211 71 -323 222 -323 434 1 150 53 278 154 380 64 63 172 123 254 139 74 15 220 6 287 -18z m819 -1611 c21 -74 41 -151 44 -171 l6 -36 -129 -13 c-131 -12 -354 -11 -368 2 -4 4 -9 42 -12 83 -6 95 17 187 60 239 l30 36 165 -2 165 -3 39 -135z m259 118 c-36 -31 -191 -101 -200 -91 -4 4 -12 28 -18 53 -8 34 -8 46 1 52 7 4 64 8 127 8 l115 -1 -25 -21z m285 -40 c21 -63 75 -174 110 -226 17 -24 21 -40 15 -46 -6 -6 -73 -11 -163 -11 l-152 0 -28 83 c-15 46 -30 103 -34 128 l-6 44 68 31 c58 26 117 44 162 48 6 1 19 -23 28 -51z m-1035 25 c0 -6 -4 -14 -9 -18 -5 -3 -12 -19 -16 -35 -5 -25 -12 -30 -36 -31 -16 -1 -35 -2 -41 -2 -64 -5 -148 37 -148 73 0 25 17 28 142 26 76 -1 108 -5 108 -13z m1502 -62 c15 -14 30 -38 33 -53 10 -39 -23 -45 -93 -19 l-57 22 -3 59 -3 59 48 -20 c26 -12 60 -33 75 -48z m212 -462 c22 -111 -7 -223 -68 -260 -90 -55 -223 4 -272 120 -15 35 -23 135 -12 146 3 3 66 8 139 12 74 3 136 7 138 9 2 2 19 4 36 4 28 0 33 -4 39 -31z m-1299 -226 l-1 -98 -29 -1 c-17 -1 -69 -5 -116 -9 l-85 -7 -18 63 c-25 96 -28 117 -14 126 17 10 86 19 183 21 l80 3 0 -98z"/>
      <path transform="scale(0.01, -0.01) translate(0,-7000)" d="M2595 4265 c-49 -13 -137 -40 -195 -60 -142 -48 -240 -72 -335 -81 -72 -7 -76 -8 -45 -16 19 -4 76 -8 125 -8 142 -1 326 54 523 155 82 42 58 45 -73 10z"/>
      <path transform="scale(0.01, -0.01) translate(0,-7000)" d="M2780 4123 c-60 -7 -146 -29 -294 -74 -304 -94 -384 -98 -636 -36 -80 19 -167 38 -195 42 -49 6 -50 6 -26 -11 44 -32 142 -74 204 -89 81 -19 267 -19 387 0 52 9 176 31 275 50 261 50 411 61 543 39 43 -7 40 0 -10 30 -65 37 -169 58 -248 49z"/>
      <path transform="scale(0.01, -0.01) translate(0,-7000)" d="M3646 3810 c-357 -57 -625 -278 -724 -601 -46 -149 -52 -320 -17 -454 35 -130 107 -256 224 -390 34 -38 102 -118 152 -178 125 -148 191 -191 357 -233 114 -29 265 -32 375 -8 101 22 256 101 356 180 287 230 424 592 344 908 -28 115 -122 275 -261 446 -125 155 -292 267 -460 311 -89 23 -259 32 -346 19z m336 -100 c253 -56 466 -229 561 -456 52 -124 71 -304 46 -454 -52 -321 -277 -563 -607 -652 -60 -16 -107 -21 -212 -21 -118 0 -146 3 -225 27 -280 85 -487 283 -577 556 -29 87 -32 106 -32 230 0 99 5 152 18 200 24 89 86 214 140 282 118 148 321 264 523 298 93 15 273 11 365 -10z"/>
      <path transform="scale(0.01, -0.01) translate(0,-7000)" d="M3863 2985 c-29 -70 -29 -90 1 -120 19 -19 30 -23 48 -16 60 22 82 119 37 167 -38 40 -61 32 -86 -31z"/>
      <path transform="scale(0.01, -0.01) translate(0,-7000)" d="M2448 2613 c-7 -114 27 -219 94 -284 40 -39 94 -67 106 -54 4 4 7 44 7 89 -1 73 -5 91 -33 149 -35 70 -95 130 -144 142 -26 7 -27 6 -30 -42z"/>
      <path transform="scale(0.01, -0.01) translate(0,-7000)" d="M2105 2478 c-40 -11 -58 -26 -84 -68 -40 -66 -19 -180 34 -180 31 0 94 55 111 97 24 56 14 144 -18 155 -7 3 -26 1 -43 -4z"/>
      <path transform="scale(0.01, -0.01) translate(0,-7000)" d="M4673 2086 c-44 -35 -93 -80 -107 -99 -26 -33 -27 -40 -21 -105 10 -96 -9 -195 -61 -331 -25 -63 -43 -116 -41 -118 8 -7 96 95 116 136 39 76 54 157 48 261 l-6 94 65 69 c67 70 104 122 104 145 0 21 -13 14 -97 -52z"/>
      <path transform="scale(0.01, -0.01) translate(0,-7000)" d="M3711 731 c-35 -44 -75 -91 -90 -105 -27 -26 -28 -26 -216 -40 -96 -7 -165 -18 -165 -26 0 -11 110 -20 249 -20 147 0 167 4 175 34 3 12 31 61 61 109 34 51 55 95 53 107 -2 17 -16 5 -67 -59z"/>
      <animateTransform type="scale" attributeName="transform" attributeType="XML" dur="5s" values="0.75;1.5;0.75" repeatCount="indefinite"/>
    </g>

    <g id="pea">
      <circle cx="5" cy="5" r="10" style="fill:lawngreen"/>
    </g>

    <g id="zombie_pea">
      <circle cx="5" cy="5" r="10" style="fill:red"/>
    </g>

    <g id="sunlight">
      <path transform="scale(0.05)" fill="gold" d="M756.3,598.28l101.77-3.59.19-1.07-87.12-53.19.59-2,191.5-39.71-.06-.75L771.41,459.19l-.25-2L858.22,403l-.45-1.09-101.27-2.6-.38-1.93,144.51-129-.56-1.24L715.21,328.26l-.85-1.48,48.43-89.89-.92-.7-90,48.43-1.22-1.27L731.84,98.45l-1-.55-130.16,147-1.17-.73L597,141.06l-1.17-.32-53.05,87-1.92-.45L501,35.71l-.81.07L460.35,227.54l-2,.16L405,140l-.87.32L400.6,243.8l-1.53.75L269.2,98.05l-1,.81,62.38,184.92-1,1-90.32-48.7-.79.81L287,327l-1.35,1.16L99.53,267l-.64,1L245.62,398.14l-.67,1.22-101.71,2.5-.35,1.09,86,54.33-.25,2L37.72,497.7l.15,1.15,190.94,39.73,0,1.95-86.11,53.15.49,1,101.85,3.59.61,1.56L98.8,729.86l.65.93,186-61.2,1.16,1.36-47.9,88.45,1.11.68,89.07-48,1.54,1.39-62.5,186.25,1,.39,130-146.81,1.67.85,3.55,101.55,1.22.13,53.34-86.32,1.52.22,40,192,.94.1,39.81-192,1.63-.31L595.88,856l1.11-.28,2.48-101.68,1.7-.64L731.09,900.09l.83-.56L670.75,713.24l1.39-1.26,89.94,48.51.61-.9-48-88.08,1.43-1.75,183.82,60.81.63-1.26-145-129.52ZM500.59,721.08c-121.64,0-220.24-98.61-220.24-220.24S379,280.6,500.59,280.6,720.83,379.2,720.83,500.84,622.23,721.08,500.59,721.08Z"/>
    </g>

    <g id="portal">
      <ellipse cx="20" cy="20" rx="20" ry="15" style="fill:none;stroke:blue;stroke-width:2"/>
    </g>
    
    <g id="exit">
      <rect height="40" width="20" y="0" x="0" style="fill:none;stroke:green;stroke-width:2"/>
      <rect height="40" width="20" y="0" x="20" style="fill:none;stroke:green;stroke-width:2"/>
    </g>

    <g id="name">
      <text id="nameValue" x="0" y="0"
       style="fill:black;font-size:16px;text-anchor:middle">Anonymous</text>
    </g>
  </defs>

  <rect width="100%" height="100%" style="fill:url(#background_pattern);stroke:grey;stroke-width:4" />

  <rect x="20" y="20" width="600" height="560" style="fill:black;stroke:black;stroke-width:5" />

  <!-- Game Info Boxes -->
  <g transform="translate(640, 120)">
    <!-- Score -->
    <rect x="0" y="-25" width="140" height="35" style="fill:white" />
    <text x="70" y="0" class="side">
      Score:
    </text>
    <rect x="0" y="10" width="140" height="35" style="fill:white" />
    <text id="score" x="70" y="36" style="fill:black;font-size:25px;text-anchor:middle">
      0
    </text>

    <!-- Peas Remaining -->
    <rect x="0" y="75" width="140" height="35" style="fill:white" />
    <text x="70" y="100" class="side">
      Pea:
    </text>
    <rect x="0" y="110" width="140" height="35" style="fill:white" />
    <text id="peaNum" x="70" y="136" style="fill:black;font-size:25px;text-anchor:middle">
      8
    </text>

    <!-- Time Remaining -->
    <rect x="0" y="175" width="140" height="35" style="fill:white" />
    <text x="70" y="200" class="side">
      Time:
    </text>
    <rect x="0" y="210" width="140" height="35" style="fill:white" />
    <rect id="time_remaining_bar" x="0" y="210" width="140" height="35" style="fill:bisque" />
    <text id="time_remaining" x="70" y="236" style="fill:red;font-size:25px;text-anchor:middle">
      60
    </text>
  </g>

  <!-- Game Area -->
  <g style="clip-path:url(#gameareaclip)">
    <g transform="translate(20,20)">
      <g id="gamearea" transform="translate(0,0)" width="600" height="560">
        <!-- Background -->
        <rect x="0" y="0" width="600" height="560" style="fill:white" />
        
        <!-- Platforms -->
        <g id="platforms" style="fill:bisque">
          <rect height="20" width="120" y="60" x="0" id="svg_1"/>
          <rect height="20" width="80" y="60" x="240" id="svg_2"/>

          <rect height="20" width="100" y="80" x="40" id="svg_3"/>
          <rect type="disappearing" height="20" width="40" y="80" x="220" id="svg_4" style="opacity:0.5"/>
          <rect height="20" type="disappearing" width="80" y="80" x="320" id="svg_5" style="opacity:0.5"/>
          <rect height="20" width="80" y="80" x="400" id="svg_6"/>

          <rect height="20" width="80" y="100" x="200" id="svg_7"/>

          <rect height="20" width="20" y="140" x="540" id="svg_8"/>

          <rect height="20" width="60" y="160" x="340" id="svg_9"/>
          <rect height="20" width="60" y="160" x="540" id="svg_10"/>

          <rect height="20" width="40" y="180" x="0" id="svg_11"/>
          <rect height="20" width="100" y="180" x="320" id="svg_12"/>
          <rect height="20" width="100" y="180" x="500" id="svg_13"/>

          <rect height="20" width="60" y="200" x="0" id="svg_14"/>

          <rect height="20" width="80" y="220" x="0" id="svg_15"/>

          <rect height="20" width="40" y="240" x="240" id="svg_16"/>

          <rect height="20" width="60" y="260" x="220" id="svg_17"/>
          <rect height="20" width="60" y="260" x="460" id="movingVerticalPlatform"/>

          <rect height="20" width="100" y="280" x="200" id="svg_18"/>

          <rect height="20" width="100" y="300" x="140" id="svg_19"/>
          <rect height="20" width="40" y="300" x="280" id="svg_20"/>

          <rect height="20" width="60" y="320" x="280" id="svg_21"/>
          <rect height="20" width="20" y="320" x="440" id="svg_22"/>

          <rect height="20" width="40" y="340" x="0" id="svg_23"/>
          <rect height="20" width="60" y="340" x="420" id="svg_24"/>

          <rect height="20" width="60" y="360" x="0" id="svg_25"/>
          <rect height="20" width="100" y="360" x="400" id="svg_26"/>

          <rect height="20" width="80" y="380" x="0" id="svg_27"/>
          <rect height="20" width="20" y="380" x="580" id="svg_28"/>

          <rect height="20" width="60" y="400" x="0" id="svg_29"/>
          <rect height="20" width="40" y="400" x="560" id="svg_30"/>

          <rect type="disappearing" height="20" width="100" y="420" x="180" id="svg_31" style="opacity:0.5"/>
          <rect height="20" width="60" y="420" x="540" id="svg_32"/>

          <rect height="20" width="80" y="440" x="160" id="svg_33"/>
          <rect height="20" width="60" y="440" x="500" id="svg_34"/>

          <rect height="20" width="40" y="460" x="140" id="svg_35"/>
          <rect height="20" width="60" y="460" x="380" id="svg_36"/>

          <rect height="20" width="40" y="480" x="0" id="svg_37"/>

          <rect height="20" width="60" y="500" x="0" id="svg_38"/>
          <rect height="20" width="40" y="500" x="280" id="svg_39"/>

          <rect height="20" width="80" y="520" x="0" id="svg_40"/>
          <rect height="20" width="80" y="520" x="260" id="svg_41"/>
          <rect height="20" width="60" y="520" x="500" id="svg_42"/>

          <rect height="20" width="600" y="540" x="0" id="svg_43"/>
        </g>

        <!-- Game Objects -->
        <g id="zombies"/>
        <g id="zombie_peas"/>

        <g id="peas"/>

        <g id="portal_left" transform="translate(0, 140)" x="0" y="140" width="40" height="40">
          <ellipse cx="20" cy="20" rx="20" ry="15" style="fill:none;stroke:blue;stroke-width:2"/>
        </g>
        <g id="portal_right" transform="translate(560, 120)" x="560" y="120" width="40" height="40">
          <ellipse cx="20" cy="20" rx="20" ry="15" style="fill:none;stroke:blue;stroke-width:2"/>
        </g>

        <g id="playerName"/>
        <g id="player">
          <path transform="scale(0.007,-0.007) translate(0,-7000)" fill="green" d="M2870 6870 c-41 -5 -103 -16 -137 -25 -34 -8 -70 -15 -80 -15 -17 0 -170 -48 -273 -85 -102 -37 -210 -93 -365 -188 -47 -29 -215 -159 -265 -206 -30 -28 -58 -51 -61 -51 -3 0 -25 23 -48 50 -36 43 -106 107 -200 183 -12 9 -26 17 -31 17 -6 0 -10 4 -10 9 0 10 -5 13 -101 65 -64 34 -168 74 -224 87 -48 10 -257 11 -374 2 -70 -5 -85 -9 -88 -25 -3 -10 -31 -32 -62 -50 -91 -51 -168 -115 -226 -187 -30 -38 -55 -71 -55 -74 0 -3 -16 -32 -34 -64 -67 -113 -126 -348 -126 -503 0 -85 29 -289 51 -358 45 -143 103 -270 170 -370 16 -24 29 -47 29 -53 0 -5 4 -9 8 -9 4 0 15 -12 24 -27 25 -42 97 -113 114 -113 8 0 24 5 35 10 17 10 19 22 19 111 0 287 115 529 325 684 22 17 41 33 43 38 2 4 8 7 13 7 5 0 31 14 59 31 44 27 50 35 50 65 0 36 8 42 28 22 9 -9 15 -10 20 -2 4 6 14 14 22 17 8 4 29 16 45 27 17 11 40 25 53 31 12 7 22 16 22 21 0 4 6 8 13 8 14 1 57 35 57 46 0 5 -17 23 -37 41 l-37 33 40 0 c21 0 44 4 50 8 14 9 44 105 44 141 l0 26 23 -25 c28 -32 97 -133 97 -143 0 -7 -42 -67 -78 -112 -27 -34 -97 -163 -129 -238 -95 -223 -131 -390 -140 -642 -11 -349 72 -661 254 -957 30 -48 59 -93 66 -100 7 -7 30 -38 53 -68 69 -92 269 -287 374 -364 l62 -46 2 -97 c2 -88 5 -105 34 -161 38 -76 111 -173 156 -207 l34 -26 -18 -72 c-60 -249 -79 -463 -61 -679 11 -128 43 -326 67 -415 6 -21 -10 -34 -18 -15 -5 12 -145 92 -193 110 -16 6 -61 23 -100 38 -63 24 -87 27 -234 31 -135 4 -176 2 -230 -12 -115 -31 -210 -82 -277 -150 -56 -57 -62 -67 -68 -117 -4 -30 -4 -79 0 -109 7 -58 59 -178 105 -246 l29 -41 -33 -28 c-26 -22 -83 -89 -140 -165 -35 -46 -100 -169 -122 -231 -44 -121 -57 -192 -53 -293 3 -89 7 -107 36 -162 31 -62 66 -108 111 -147 13 -12 29 -26 35 -31 78 -74 267 -159 433 -195 133 -29 463 -29 573 0 230 62 380 161 523 348 49 64 136 225 182 337 15 36 18 38 28 22 101 -159 168 -236 281 -321 131 -99 264 -157 451 -198 87 -19 131 -22 340 -22 245 -1 315 7 490 51 179 45 389 152 443 225 7 9 19 23 26 31 8 7 24 33 36 56 19 38 21 56 18 140 -3 90 -6 102 -47 186 -24 50 -66 119 -94 155 -50 64 -161 175 -175 175 -4 0 -20 11 -35 25 -15 14 -58 41 -95 59 -37 19 -75 38 -85 43 -86 43 -328 88 -473 88 l-103 0 6 69 c15 180 -54 312 -199 380 -79 36 -118 47 -238 62 -178 22 -347 -24 -487 -132 l-61 -48 -12 32 c-35 98 -79 413 -80 569 0 89 24 330 38 383 7 26 15 31 53 38 123 22 155 31 217 62 96 49 169 126 187 197 6 23 11 24 198 42 335 31 534 82 787 203 206 99 381 224 564 404 l119 117 66 -67 c77 -78 114 -107 195 -152 133 -72 244 -99 409 -99 209 1 376 59 570 197 207 148 357 327 470 564 124 258 161 410 174 704 7 172 -22 384 -66 490 -5 11 -15 36 -22 55 -13 37 -89 192 -99 200 -3 3 -19 25 -35 50 -91 135 -258 252 -445 311 -67 21 -94 24 -245 24 -148 -1 -179 -3 -239 -23 -161 -52 -342 -161 -466 -279 -25 -24 -47 -43 -50 -43 -3 0 -14 17 -25 38 -87 165 -292 399 -480 548 -44 35 -88 70 -97 79 -10 8 -20 15 -23 15 -9 0 -70 44 -73 53 -2 4 -7 7 -12 7 -4 0 -34 16 -66 35 -174 105 -384 183 -639 236 -85 18 -142 22 -390 24 -159 2 -324 0 -365 -5z m643 -96 c421 -61 798 -245 1096 -537 150 -147 288 -325 346 -448 l18 -37 -60 -83 c-60 -84 -153 -238 -153 -255 0 -4 17 18 37 51 165 268 421 486 684 585 195 72 419 67 622 -15 291 -117 488 -411 536 -805 32 -251 -23 -543 -153 -812 -155 -325 -462 -603 -768 -696 -127 -39 -209 -45 -354 -23 -155 23 -277 71 -386 153 -105 78 -213 221 -267 353 -42 105 -91 209 -91 196 0 -35 55 -194 102 -293 l51 -107 -64 -72 c-173 -195 -447 -391 -690 -494 -543 -229 -1222 -216 -1744 35 -455 219 -825 626 -963 1060 -60 189 -67 243 -67 505 0 261 7 317 66 502 137 429 495 825 955 1056 168 84 440 164 649 190 94 12 495 6 598 -9z m-2625 -190 c40 -13 107 -42 150 -64 73 -37 75 -39 42 -40 -53 0 -146 -27 -204 -57 -78 -41 -193 -164 -251 -268 l-49 -88 -24 51 c-12 28 -31 88 -41 133 -9 46 -22 84 -27 86 -6 2 -23 -36 -37 -84 -33 -107 -36 -230 -8 -337 l18 -69 -28 -87 c-53 -163 -71 -281 -67 -423 l4 -128 -32 63 c-45 89 -91 237 -109 348 -63 396 88 779 368 931 137 75 161 78 295 33z m297 -12 c131 -53 321 -199 411 -318 27 -35 25 -52 -14 -87 -19 -17 -21 -16 -68 50 -100 142 -251 278 -396 358 -38 20 -68 38 -68 40 0 5 75 -19 135 -43z m1247 -3638 c37 -12 89 -26 115 -30 27 -3 50 -8 53 -10 3 -1 -2 -56 -12 -121 -22 -151 -24 -456 -3 -601 43 -301 153 -641 298 -917 l42 -80 -95 -92 c-123 -120 -132 -121 -197 -20 -68 104 -213 393 -268 530 -120 303 -175 577 -175 874 0 183 18 324 67 520 l5 22 51 -26 c29 -14 82 -36 119 -49z m-642 -977 c114 -39 203 -87 308 -167 95 -72 136 -114 155 -161 l15 -36 -107 54 c-58 29 -142 64 -186 77 -44 14 -73 25 -65 25 8 1 31 -3 49 -9 43 -12 51 -6 17 12 -14 7 -76 50 -138 94 -62 45 -130 93 -150 106 -37 25 -40 38 -9 38 9 0 59 -15 111 -33z m1445 28 c-5 -2 -42 -9 -80 -15 l-71 -11 -39 -59 c-22 -33 -43 -60 -47 -60 -5 0 -8 -7 -8 -15 0 -8 -4 -15 -10 -15 -5 0 -10 -6 -10 -13 0 -7 -8 -22 -17 -33 -10 -11 -24 -30 -30 -42 -11 -19 -11 -21 5 -15 11 3 9 0 -6 -11 -12 -10 -27 -14 -34 -10 -6 4 -8 3 -5 -3 4 -6 -9 -23 -27 -37 l-35 -26 -19 53 -20 52 25 35 c77 105 189 185 297 211 59 15 164 26 131 14z m-1419 -550 c82 -16 140 -35 214 -72 l45 -22 -42 0 c-176 -3 -422 -86 -533 -181 l-35 -29 77 30 c142 54 239 72 383 72 111 0 143 -4 218 -27 120 -36 220 -88 284 -149 59 -55 133 -161 133 -190 0 -39 -66 -184 -121 -267 -152 -227 -387 -352 -694 -367 -379 -19 -723 110 -811 302 -35 75 -40 143 -19 243 45 222 141 400 274 509 159 131 410 190 627 148z m2274 -30 c303 -49 489 -172 603 -399 47 -94 80 -217 71 -265 -28 -156 -211 -261 -554 -321 -101 -18 -402 -24 -511 -11 -176 20 -338 72 -474 150 -87 50 -223 190 -273 281 -23 41 -42 83 -42 93 0 9 33 50 73 91 85 86 183 139 342 183 95 26 111 28 305 28 138 0 221 -4 255 -13 28 -7 77 -20 110 -28 33 -8 77 -22 98 -30 49 -19 47 -11 -7 21 -107 62 -312 120 -498 138 l-123 13 85 27 c173 57 359 71 540 42z"/>
          <path transform="scale(0.007,-0.007) translate(0,-7000)" fill="green" d="M4145 6256 c-74 -33 -116 -112 -116 -216 0 -95 26 -179 82 -266 127 -194 332 -230 423 -74 30 51 34 171 8 257 -64 210 -262 359 -397 299z m65 -124 c62 -62 79 -170 37 -233 -41 -62 -117 -48 -156 29 -40 80 -39 170 4 216 35 37 70 34 115 -12z"/>
          <path transform="scale(0.007,-0.007) translate(0,-7000)" fill="green" d="M3163 6140 c-71 -36 -105 -72 -142 -150 -24 -50 -26 -66 -26 -175 1 -104 4 -129 27 -187 77 -204 238 -356 416 -398 134 -31 269 38 330 169 34 74 42 216 17 311 -66 253 -268 446 -480 457 -74 4 -84 2 -142 -27z m71 -124 c132 -55 171 -317 61 -404 -36 -28 -98 -29 -143 -2 -76 47 -126 189 -102 290 25 106 98 152 184 116z"/>
          <path transform="scale(0.007,-0.007) translate(0,-7000)" fill="green" d="M5754 5667 c-133 -44 -279 -157 -389 -301 -149 -196 -225 -433 -225 -701 0 -147 21 -243 80 -360 97 -194 238 -286 434 -284 123 1 154 14 50 21 -124 9 -241 76 -315 180 l-20 27 47 -21 c39 -17 62 -20 138 -16 121 5 198 41 302 140 166 158 259 363 271 598 7 148 -7 232 -57 335 -68 142 -166 213 -305 224 l-69 6 66 32 c174 85 361 80 497 -11 28 -19 51 -31 51 -26 0 19 -116 111 -178 142 -63 31 -74 33 -187 36 -103 2 -130 -1 -191 -21z"/>
        </g>

        <g id="sunlights"/>

        <g id="exit_door" transform="translate(0, 20)">
          <rect height="40" width="20" y="0" x="0" style="fill:none;stroke:green;stroke-width:2"/>
          <rect height="40" width="20" y="0" x="20" style="fill:none;stroke:green;stroke-width:2"/>
        </g>
      </g>
    </g>
  </g>

  <!--Start Screen-->
  <g id="startScreen" transform="translate(20,20)">
    <rect width="760" height="560" style="fill:white;stroke:grey;stroke-width:5"/>
    <text id="titleText" x="325" y="100" style="font-family: Impact ; font-size: 60px; fill: green; text-anchor: middle">Peashooter vs Zombies</text>
    <text class="instruction_text" x="50" y="150">You are a Peashooter who needs to collect all the sunlight.</text>
    <text class="instruction_text" x="50" y="175">Stay away from the Zombies or shoot them!</text>
    <text class="instruction_text" x="50" y="200">In zoom mode (200%), you get much more scores,</text>
    <text class="instruction_text" x="70" y="225">but it's more dangerous too!</text>
    <text class="instruction_text" x="50" y="250">Keys:</text>
    <text class="instruction_text" x="70" y="275">W: Up</text>
    <text class="instruction_text" x="70" y="300">A: Left</text>
    <text class="instruction_text" x="70" y="325">D: Right</text>
    <text class="instruction_text" x="70" y="350">C: Cheat Mode (immune to zombies, infinite peas)</text>
    <text class="instruction_text" x="70" y="375">V: Exit Cheat Mode</text>
    <text class="instruction_text" x="70" y="400">Backspace: Shoot peas (only 8!)</text>
    <text class="instruction_text" x="50" y="425">Collect the sunlights and get to the exit ASAP! </text>
    <text id="authorInfoText" x="400" y="550" style="font-family: Arial; font-size: 20px; fill: black; text-anchor: middle">LIU Weiyang, 20413306</text>
    <path transform="scale(0.03,-0.03) translate(14000,-14000)" fill="green" d="M2870 6870 c-41 -5 -103 -16 -137 -25 -34 -8 -70 -15 -80 -15 -17 0 -170 -48 -273 -85 -102 -37 -210 -93 -365 -188 -47 -29 -215 -159 -265 -206 -30 -28 -58 -51 -61 -51 -3 0 -25 23 -48 50 -36 43 -106 107 -200 183 -12 9 -26 17 -31 17 -6 0 -10 4 -10 9 0 10 -5 13 -101 65 -64 34 -168 74 -224 87 -48 10 -257 11 -374 2 -70 -5 -85 -9 -88 -25 -3 -10 -31 -32 -62 -50 -91 -51 -168 -115 -226 -187 -30 -38 -55 -71 -55 -74 0 -3 -16 -32 -34 -64 -67 -113 -126 -348 -126 -503 0 -85 29 -289 51 -358 45 -143 103 -270 170 -370 16 -24 29 -47 29 -53 0 -5 4 -9 8 -9 4 0 15 -12 24 -27 25 -42 97 -113 114 -113 8 0 24 5 35 10 17 10 19 22 19 111 0 287 115 529 325 684 22 17 41 33 43 38 2 4 8 7 13 7 5 0 31 14 59 31 44 27 50 35 50 65 0 36 8 42 28 22 9 -9 15 -10 20 -2 4 6 14 14 22 17 8 4 29 16 45 27 17 11 40 25 53 31 12 7 22 16 22 21 0 4 6 8 13 8 14 1 57 35 57 46 0 5 -17 23 -37 41 l-37 33 40 0 c21 0 44 4 50 8 14 9 44 105 44 141 l0 26 23 -25 c28 -32 97 -133 97 -143 0 -7 -42 -67 -78 -112 -27 -34 -97 -163 -129 -238 -95 -223 -131 -390 -140 -642 -11 -349 72 -661 254 -957 30 -48 59 -93 66 -100 7 -7 30 -38 53 -68 69 -92 269 -287 374 -364 l62 -46 2 -97 c2 -88 5 -105 34 -161 38 -76 111 -173 156 -207 l34 -26 -18 -72 c-60 -249 -79 -463 -61 -679 11 -128 43 -326 67 -415 6 -21 -10 -34 -18 -15 -5 12 -145 92 -193 110 -16 6 -61 23 -100 38 -63 24 -87 27 -234 31 -135 4 -176 2 -230 -12 -115 -31 -210 -82 -277 -150 -56 -57 -62 -67 -68 -117 -4 -30 -4 -79 0 -109 7 -58 59 -178 105 -246 l29 -41 -33 -28 c-26 -22 -83 -89 -140 -165 -35 -46 -100 -169 -122 -231 -44 -121 -57 -192 -53 -293 3 -89 7 -107 36 -162 31 -62 66 -108 111 -147 13 -12 29 -26 35 -31 78 -74 267 -159 433 -195 133 -29 463 -29 573 0 230 62 380 161 523 348 49 64 136 225 182 337 15 36 18 38 28 22 101 -159 168 -236 281 -321 131 -99 264 -157 451 -198 87 -19 131 -22 340 -22 245 -1 315 7 490 51 179 45 389 152 443 225 7 9 19 23 26 31 8 7 24 33 36 56 19 38 21 56 18 140 -3 90 -6 102 -47 186 -24 50 -66 119 -94 155 -50 64 -161 175 -175 175 -4 0 -20 11 -35 25 -15 14 -58 41 -95 59 -37 19 -75 38 -85 43 -86 43 -328 88 -473 88 l-103 0 6 69 c15 180 -54 312 -199 380 -79 36 -118 47 -238 62 -178 22 -347 -24 -487 -132 l-61 -48 -12 32 c-35 98 -79 413 -80 569 0 89 24 330 38 383 7 26 15 31 53 38 123 22 155 31 217 62 96 49 169 126 187 197 6 23 11 24 198 42 335 31 534 82 787 203 206 99 381 224 564 404 l119 117 66 -67 c77 -78 114 -107 195 -152 133 -72 244 -99 409 -99 209 1 376 59 570 197 207 148 357 327 470 564 124 258 161 410 174 704 7 172 -22 384 -66 490 -5 11 -15 36 -22 55 -13 37 -89 192 -99 200 -3 3 -19 25 -35 50 -91 135 -258 252 -445 311 -67 21 -94 24 -245 24 -148 -1 -179 -3 -239 -23 -161 -52 -342 -161 -466 -279 -25 -24 -47 -43 -50 -43 -3 0 -14 17 -25 38 -87 165 -292 399 -480 548 -44 35 -88 70 -97 79 -10 8 -20 15 -23 15 -9 0 -70 44 -73 53 -2 4 -7 7 -12 7 -4 0 -34 16 -66 35 -174 105 -384 183 -639 236 -85 18 -142 22 -390 24 -159 2 -324 0 -365 -5z m643 -96 c421 -61 798 -245 1096 -537 150 -147 288 -325 346 -448 l18 -37 -60 -83 c-60 -84 -153 -238 -153 -255 0 -4 17 18 37 51 165 268 421 486 684 585 195 72 419 67 622 -15 291 -117 488 -411 536 -805 32 -251 -23 -543 -153 -812 -155 -325 -462 -603 -768 -696 -127 -39 -209 -45 -354 -23 -155 23 -277 71 -386 153 -105 78 -213 221 -267 353 -42 105 -91 209 -91 196 0 -35 55 -194 102 -293 l51 -107 -64 -72 c-173 -195 -447 -391 -690 -494 -543 -229 -1222 -216 -1744 35 -455 219 -825 626 -963 1060 -60 189 -67 243 -67 505 0 261 7 317 66 502 137 429 495 825 955 1056 168 84 440 164 649 190 94 12 495 6 598 -9z m-2625 -190 c40 -13 107 -42 150 -64 73 -37 75 -39 42 -40 -53 0 -146 -27 -204 -57 -78 -41 -193 -164 -251 -268 l-49 -88 -24 51 c-12 28 -31 88 -41 133 -9 46 -22 84 -27 86 -6 2 -23 -36 -37 -84 -33 -107 -36 -230 -8 -337 l18 -69 -28 -87 c-53 -163 -71 -281 -67 -423 l4 -128 -32 63 c-45 89 -91 237 -109 348 -63 396 88 779 368 931 137 75 161 78 295 33z m297 -12 c131 -53 321 -199 411 -318 27 -35 25 -52 -14 -87 -19 -17 -21 -16 -68 50 -100 142 -251 278 -396 358 -38 20 -68 38 -68 40 0 5 75 -19 135 -43z m1247 -3638 c37 -12 89 -26 115 -30 27 -3 50 -8 53 -10 3 -1 -2 -56 -12 -121 -22 -151 -24 -456 -3 -601 43 -301 153 -641 298 -917 l42 -80 -95 -92 c-123 -120 -132 -121 -197 -20 -68 104 -213 393 -268 530 -120 303 -175 577 -175 874 0 183 18 324 67 520 l5 22 51 -26 c29 -14 82 -36 119 -49z m-642 -977 c114 -39 203 -87 308 -167 95 -72 136 -114 155 -161 l15 -36 -107 54 c-58 29 -142 64 -186 77 -44 14 -73 25 -65 25 8 1 31 -3 49 -9 43 -12 51 -6 17 12 -14 7 -76 50 -138 94 -62 45 -130 93 -150 106 -37 25 -40 38 -9 38 9 0 59 -15 111 -33z m1445 28 c-5 -2 -42 -9 -80 -15 l-71 -11 -39 -59 c-22 -33 -43 -60 -47 -60 -5 0 -8 -7 -8 -15 0 -8 -4 -15 -10 -15 -5 0 -10 -6 -10 -13 0 -7 -8 -22 -17 -33 -10 -11 -24 -30 -30 -42 -11 -19 -11 -21 5 -15 11 3 9 0 -6 -11 -12 -10 -27 -14 -34 -10 -6 4 -8 3 -5 -3 4 -6 -9 -23 -27 -37 l-35 -26 -19 53 -20 52 25 35 c77 105 189 185 297 211 59 15 164 26 131 14z m-1419 -550 c82 -16 140 -35 214 -72 l45 -22 -42 0 c-176 -3 -422 -86 -533 -181 l-35 -29 77 30 c142 54 239 72 383 72 111 0 143 -4 218 -27 120 -36 220 -88 284 -149 59 -55 133 -161 133 -190 0 -39 -66 -184 -121 -267 -152 -227 -387 -352 -694 -367 -379 -19 -723 110 -811 302 -35 75 -40 143 -19 243 45 222 141 400 274 509 159 131 410 190 627 148z m2274 -30 c303 -49 489 -172 603 -399 47 -94 80 -217 71 -265 -28 -156 -211 -261 -554 -321 -101 -18 -402 -24 -511 -11 -176 20 -338 72 -474 150 -87 50 -223 190 -273 281 -23 41 -42 83 -42 93 0 9 33 50 73 91 85 86 183 139 342 183 95 26 111 28 305 28 138 0 221 -4 255 -13 28 -7 77 -20 110 -28 33 -8 77 -22 98 -30 49 -19 47 -11 -7 21 -107 62 -312 120 -498 138 l-123 13 85 27 c173 57 359 71 540 42z"/>
    <path transform="scale(0.03,-0.03) translate(14000,-14000)" fill="green" d="M4145 6256 c-74 -33 -116 -112 -116 -216 0 -95 26 -179 82 -266 127 -194 332 -230 423 -74 30 51 34 171 8 257 -64 210 -262 359 -397 299z m65 -124 c62 -62 79 -170 37 -233 -41 -62 -117 -48 -156 29 -40 80 -39 170 4 216 35 37 70 34 115 -12z"/>
    <path transform="scale(0.03,-0.03) translate(14000,-14000)" fill="green" d="M3163 6140 c-71 -36 -105 -72 -142 -150 -24 -50 -26 -66 -26 -175 1 -104 4 -129 27 -187 77 -204 238 -356 416 -398 134 -31 269 38 330 169 34 74 42 216 17 311 -66 253 -268 446 -480 457 -74 4 -84 2 -142 -27z m71 -124 c132 -55 171 -317 61 -404 -36 -28 -98 -29 -143 -2 -76 47 -126 189 -102 290 25 106 98 152 184 116z"/>
    <path transform="scale(0.03,-0.03) translate(14000,-14000)" fill="green" d="M5754 5667 c-133 -44 -279 -157 -389 -301 -149 -196 -225 -433 -225 -701 0 -147 21 -243 80 -360 97 -194 238 -286 434 -284 123 1 154 14 50 21 -124 9 -241 76 -315 180 l-20 27 47 -21 c39 -17 62 -20 138 -16 121 5 198 41 302 140 166 158 259 363 271 598 7 148 -7 232 -57 335 -68 142 -166 213 -305 224 l-69 6 66 32 c174 85 361 80 497 -11 28 -19 51 -31 51 -26 0 19 -116 111 -178 142 -63 31 -74 33 -187 36 -103 2 -130 -1 -191 -21z"/>

    <!--Start Button-->
    <g onclick="top.initializeGame(false)">
      <rect class="button" x="50" y="450" width="200" height="50" rx="10" ry="10" />
      <text class="button_text" id="normalModeText" x="150" y="480">Normal Mode</text>
    </g>
    <g onclick="top.initializeGame(true)">
      <rect class="button" x="350" y="450" width="200" height="50" rx="10" ry="10" />
      <text class="button_text" id="normalModeText" x="450" y="480" style="fill:red">Zoom Mode</text>
    </g>
  </g>
  
  <!--High Scores Table-->
  <g id="highscoreTable" style="visibility:hidden">
    <rect width="600" height="560" style="fill:grey;opacity:0.5" transform="translate(20,20)"/>
    <text transform="translate(60,50)" x="260" y="40" style="fill:white;font-size:30px;font-weight:bold;text-anchor:middle;font-family:Century Gothic;">
      High Scores Table
    </text>
    <g transform="translate(60,80)">
      <rect width="520" height="320" style="fill:black;opacity:0.8" transform="translate(5,65)"/>
      <rect width="520" height="320" style="fill:white;stroke:grey;stroke-width:2" transform="translate(0,60)"/>
      <text id="highscoreText" y="65" style="font-size: 20px;font-weight:bold"/>
    </g>
    <g onclick="top.restartGame()" transform="translate(200,460)translate(50,40)">
        <rect x="3" y="3" width="180" height="60" style="fill:black;stroke:black;stroke-width:2;opacity:0.65" />
        <rect x="0" y="0" width="180" height="60" style="fill:white;stroke:red;stroke-width:2" />
        <text x="95" y="38" style="fill:black;font-size:25px;text-anchor:middle;font-family:Arial;">Start Again?</text>
    </g>
  </g>
</svg>
