<!-- code by Bohan Jiang -->

<?xml version="1.0" encoding="utf-8"?>

<svg width="400px" height="450px"
     xmlns="http://www.w3.org/2000/svg"
     xmlns:xhtml="http://www.w3.org/1999/xhtml"
     xmlns:xlink="http://www.w3.org/1999/xlink"
     xmlns:a="http://www.adobe.com/svg10-extensions" a:timeline="independent"
     onload="load()">

    <script type="text/javascript">
    <![CDATA[
    var OBJECT_NAME = "smiley";
    var OBJECT_WIDTH = 50;
    var OBJECT_HEIGHT = 50;
    var MAX_ANGLE_CHANGE = 30;

    var interval = null;
    var angle_change;
    var width, height;
    var displacement;
    var isASV = false;
    var isFF = false;

    function load() {
        angle_change = 2;
        width = height = 400;

        displacement = new Object();
        displacement.x = displacement.y = 5;

        isASV = (window.navigator.appName == "Adobe SVG Viewer");
        isFF = (window.navigator.appName == "Netscape");
    }

    function playsnd(id) {
        if (isASV) {
            var snd = document.getElementById(id + "_asv");
            snd.endElement();
            snd.beginElement();
        }
        if (isFF) {
            var snd = document.getElementById(id);
            snd.currentTime = 0;
            snd.play();
        }
    }

    function move() {
        var x, y, angle;
        var translate, rotate;
        var object = document.getElementById(OBJECT_NAME);

        if (object == null) return;

        x = parseFloat(object.getAttribute("x"));
        if (isNaN(x)) x = 0;

        y = parseFloat(object.getAttribute("y"));
        if (isNaN(y)) y = 0;

        angle = parseFloat(object.getAttribute("angle"));
        if (isNaN(angle)) angle = 0;

        x += displacement.x;
        if (x < 0) {
            x = 0;
            displacement.x = -displacement.x;
            angle_change = Math.random() * MAX_ANGLE_CHANGE;
            playsnd("ding");
        }
                
        if (x > width - OBJECT_WIDTH) {
            x = width - OBJECT_WIDTH;
            displacement.x = -displacement.x;
            angle_change = Math.random() * MAX_ANGLE_CHANGE;
            playsnd("ding");
        }

        y += displacement.y;
        if (y < 0) {
            y = 0;
            displacement.y = -displacement.y;
            angle_change = Math.random() * MAX_ANGLE_CHANGE;
            playsnd("ding");
        }
                        
        if (y > height - OBJECT_HEIGHT) {
            y = height - OBJECT_HEIGHT;
            displacement.y = -displacement.y;
            angle_change = Math.random() * MAX_ANGLE_CHANGE;
            playsnd("ding");
        }

        angle = (angle + angle_change) % 360;

        object.setAttribute("x", x);
        object.setAttribute("y", y);
        object.setAttribute("angle", angle);

        // Add the code to translate and rotate here!
        translate = "translate(" + x + ", " + y + ")";
        rotate = "rotate(" + angle + ", " + OBJECT_WIDTH/2.0 + ", " + OBJECT_HEIGHT/2.0 + ")";
        object.setAttribute("transform", translate + rotate);
    }

    function startball() {
        // Setup a new interval
        if (interval != null) clearInterval(interval);
        interval = setInterval("move()", 50);
    }

    function stopball() {
        // Clear the interval
        if (interval != null) {
            clearInterval(interval);
            interval = null;
        }
    }

    function randomize() {
        // Change the displacement by Math.random()
        displacement.x = Math.random() * 100 - 50;
        displacement.y = Math.random() * 100 - 50;
    }
    ]]>
    </script>

    <style type="text/css">
    <![CDATA[
    .background { fill: lightblue; stroke: darkblue; stroke-width: 2; }
    .button { cursor: pointer; }
    .button rect { fill: lightgray; }
    .button:hover rect { fill: #f0f0f0; stroke: lightgray; stroke-width: 1; }
    .button text { font-size:15px; font-weight:bold; text-anchor:middle; }
    ]]>
    </style>


    <!-- Add your audio tag here -->
    <a:audio id="ding_asv" xlink:href="ding.wav" begin="indefinite"/>
    <!--  <xhtml:audio id="ding" src="ding.wav" begin="indefinite"/> -->
    <rect x="1" y="1" width="398px" height="398px" class="background"/>


    <!-- Add your webdraw object here -->
    <g id="smiley">
      <circle style="fill:#F9EE2D;stroke:#000000;stroke-miterlimit:10;" cx="24.725" cy="22.119" r="17.461"/>
      <circle cx="19.377" cy="10.041" r="1.505"/>
      <circle cx="34.377" cy="23.041" r="1.505"/>
      <path style="fill:none;stroke:#000000;stroke-miterlimit:10;" d="M10.233,12.376c0,0,0.903,4.676,3.042,7.081
	      c2.627,2.956,6.951,2.662,6.951,2.662s-0.821,3.741,1.806,6.588s9.524,2.901,9.524,2.901s-2.408,2.846-4.871,3.94
	      c-2.304,1.024-4.762,1.399-8.32,0.767c-2.714-0.482-5.393-1.282-8.009-4.274"/>
      <path style="fill:#FF0016;stroke:#000000;stroke-miterlimit:10;" d="M20.882,27.026c0,0-4.926,2.009-7.17,1.735
	      S8.02,27.887,4.9,29.31s-3.831,4.598-3.01,6.732s4.214,4.815,6.185,4.269s3.996-1.751,6.295-2.572s4.652-2.792,7.279-3.12
	      s5.583-0.492,5.583-0.492l2.213-0.422l2.111-2.096c0,0-5.528-0.219-7.061-0.985C21.985,29.368,20.882,27.026,20.882,27.026z"/>
      <path style="fill:#FF0016;stroke:#000000;stroke-miterlimit:10;" d="M5.815,33.783c0,0,2.073-1.26,3.417-1.643
	      s3.205-0.603,5.121-0.931s3.025-0.642,3.518-0.642"/>
      <path style="fill:#FFFFFF;stroke:#000000;stroke-miterlimit:10;" d="M11.145,16.565c0,0-1.319,2.305-1.483,3.564
	      s-0.273,2.99-0.273,2.99l3.886-2.662L11.145,16.565z"/>
      <path style="fill:#FFFFFF;stroke:#000000;stroke-miterlimit:10;" d="M24.843,31.01l-2.949,3.773c0,0,2.67,0.397,4.477-0.643
	      c1.806-1.04,2.667-2.313,2.667-2.313L24.843,31.01z"/>
    </g>
    <g transform="translate(30,405)" class="button" onclick="startball()">
        <rect rx="10" ry="10" width="100" height="40"/>
        <text x="50" y="25">Start</text>
    </g>

    <g transform="translate(150,405)" class="button" onclick="stopball()">
        <rect rx="10" ry="10" width="100" height="40"/>
        <text x="50" y="25">Stop</text>
    </g>

    <g transform="translate(270,405)" class="button" onclick="randomize()">
        <rect rx="10" ry="10" width="100" height="40"/>
        <text x="50" y="25">Randomize</text>
    </g>

</svg>
